# xmcd CD database file
#
# Track frame offsets:
#	150
#	16825
#	38887
#	56423
#	73602
#	88536
#	102102
#	121830
#
# Disc length: 1827 seconds
#
# Revision: 0
# Processed by: cddbd v1.5.1PL0 Copyright (c) Steve Scherf et al.
# Submitted via: CDex 1.51
#
DISCID=5a072108
DTITLE=Blenman Steel Sounds - Jazz "N" Steel
DYEAR=1900
DGENRE=Jazz
TTITLE0=Breezin
TTITLE1='round Midnight
TTITLE2=Satin Doll
TTITLE3=Giant Steps
TTITLE4=Take Five
TTITLE5=Freddy The Free Loader
TTITLE6=Killer Joe
TTITLE7=What A Wonderful World
EXTD=
EXTT0=
EXTT1=
EXTT2=
EXTT3=
EXTT4=
EXTT5=
EXTT6=
EXTT7=
PLAYORDER=
